grf
version=1
nRows=31
nColumns=19
inDegrees=yes
endheader
time	ground_force_1_vx	ground_force_1_vy	ground_force_1_vz	ground_force_1_px	ground_force_1_py	ground_force_1_pz	ground_moment_1_mx	ground_moment_1_my	ground_moment_1_mz	ground_force_2_vx	ground_force_2_vy	ground_force_2_vz	ground_force_2_px	ground_force_2_py	ground_force_2_pz	ground_moment_2_mx	ground_moment_2_my	ground_moment_2_mz
1.753000	15.769021	1467.603394	-461.703247	0.180375	0.000000	-0.791716	0.000000	13.770265	0.000000	9.580544	1392.053223	454.421509	0.206827	0.000000	-1.576495	0.000000	-8.909580	-0.000000
1.754000	14.715433	1469.822632	-462.390747	0.180841	0.000000	-0.792414	0.000000	13.923163	0.000000	9.703125	1399.073242	454.702820	0.207016	0.000000	-1.576475	0.000000	-8.583208	-0.000000
1.755000	15.967964	1466.463379	-462.228455	0.181505	0.000000	-0.790302	-0.000000	13.410457	-0.000000	9.542994	1393.653320	454.339478	0.206982	0.000000	-1.577165	0.000000	-8.376776	-0.000000
1.756000	14.757198	1474.331299	-461.905975	0.180560	0.000000	-0.792350	0.000000	13.922366	0.000000	9.176769	1398.749023	454.419800	0.206945	0.000000	-1.575769	0.000000	-8.891894	-0.000000
1.757000	16.694653	1481.225098	-463.996216	0.179974	0.000000	-0.793726	0.000000	13.971581	0.000000	10.144726	1391.573486	453.575378	0.206588	0.000000	-1.576246	0.000000	-8.748038	-0.000000
1.758000	14.638367	1468.721924	-462.989746	0.180783	0.000000	-0.791092	0.000000	13.572696	0.000000	10.426886	1376.258179	453.856812	0.205558	0.000000	-1.576585	0.000000	-9.133031	0.000000
1.759000	15.687771	1471.131104	-464.437805	0.180366	0.000000	-0.792547	0.000000	13.675112	0.000000	10.909484	1394.918335	453.896881	0.206283	0.000000	-1.576353	0.000000	-8.796423	-0.000000
1.760000	15.605381	1479.122925	-463.233276	0.180806	0.000000	-0.793501	0.000000	13.701749	0.000000	9.620301	1389.980469	454.056885	0.206632	0.000000	-1.576156	0.000000	-8.811712	-0.000000
1.761000	16.213997	1472.735474	-463.234924	0.180430	0.000000	-0.792168	0.000000	13.755532	0.000000	10.991204	1394.125000	452.970947	0.206852	0.000000	-1.575844	0.000000	-8.308609	-0.000000
1.762000	15.769783	1471.292358	-463.111633	0.180306	0.000000	-0.792018	0.000000	13.739882	0.000000	11.392633	1390.928955	453.373749	0.206469	0.000000	-1.575822	0.000000	-8.627865	-0.000000
1.763000	15.607283	1476.900879	-464.200073	0.180335	0.000000	-0.792473	0.000000	13.842356	0.000000	11.875647	1396.030762	453.452759	0.206325	0.000000	-1.575981	0.000000	-8.522046	-0.000000
1.764000	15.485027	1470.976929	-462.788696	0.180136	0.000000	-0.792545	0.000000	13.900661	-0.000000	11.110750	1394.915894	452.206635	0.205604	0.000000	-1.576320	0.000000	-8.978850	-0.000000
1.765000	15.969484	1474.809448	-464.076996	0.180619	0.000000	-0.792961	0.000000	13.650109	0.000000	12.078293	1393.328369	453.251221	0.206577	0.000000	-1.576255	0.000000	-8.181846	-0.000000
1.766000	16.860956	1478.185303	-463.593842	0.180444	0.000000	-0.792563	0.000000	13.529715	0.000000	11.836027	1391.729492	453.331665	0.206274	0.000000	-1.575768	0.000000	-8.434703	-0.000000
1.767000	15.563614	1462.345459	-464.681580	0.179707	0.000000	-0.791416	0.000000	14.193051	0.000000	12.722263	1396.351074	454.580444	0.206326	0.000000	-1.575427	0.000000	-8.443527	-0.000000
1.768000	16.168806	1468.912720	-464.157562	0.179882	0.000000	-0.793213	0.000000	14.093651	0.000000	13.003043	1393.006714	453.290741	0.205924	0.000000	-1.576771	0.000000	-8.444675	-0.000000
1.769000	15.847229	1470.169067	-464.156616	0.180385	0.000000	-0.792803	0.000000	13.775165	0.000000	12.601199	1393.800293	452.848877	0.205811	0.000000	-1.575954	0.000000	-8.510517	-0.000000
1.770000	16.500273	1469.713379	-463.872681	0.179655	0.000000	-0.792338	0.000000	13.675917	0.000000	12.278593	1388.851074	453.572296	0.205890	0.000000	-1.575555	0.000000	-8.535687	-0.000000
1.771000	16.738701	1467.131958	-463.754761	0.180283	0.000000	-0.792504	0.000000	13.653303	0.000000	11.593901	1403.047363	456.061707	0.205548	0.000000	-1.576249	0.000000	-8.432654	-0.000000
1.772000	16.860956	1472.429565	-462.865723	0.179926	0.000000	-0.793388	0.000000	13.643212	0.000000	13.003319	1396.821777	453.410828	0.205470	0.000000	-1.575609	0.000000	-8.579292	-0.000000
1.773000	15.359348	1459.473999	-464.438263	0.179108	0.000000	-0.790848	-0.000000	14.505268	-0.000000	13.164139	1398.414551	453.531830	0.205771	0.000000	-1.575816	0.000000	-8.480594	-0.000000
1.774000	16.981308	1473.709106	-464.679474	0.180103	0.000000	-0.792471	0.000000	13.651144	0.000000	12.882393	1405.114258	453.812500	0.205407	0.000000	-1.575540	0.000000	-8.599042	-0.000000
1.775000	16.735657	1468.909546	-463.631439	0.179613	0.000000	-0.793024	0.000000	13.998178	0.000000	13.285065	1398.410400	453.853516	0.205173	0.000000	-1.575669	0.000000	-8.721073	-0.000000
1.776000	17.345413	1473.552368	-465.076447	0.180021	0.000000	-0.792536	0.000000	13.401636	0.000000	14.130025	1404.469116	454.737244	0.205480	0.000000	-1.575217	0.000000	-8.457318	-0.000000
1.777000	16.979408	1466.493652	-462.825806	0.180204	0.000000	-0.793072	0.000000	13.629207	0.000000	14.089441	1401.922974	453.934052	0.206034	0.000000	-1.575025	0.000000	-8.351636	-0.000000
1.778000	17.786964	1466.507324	-462.583862	0.179863	0.000000	-0.792410	0.000000	13.705768	0.000000	14.129749	1402.236938	454.496185	0.205325	0.000000	-1.575586	0.000000	-8.575530	-0.000000
1.779000	17.504108	1466.345947	-462.301514	0.179787	0.000000	-0.793151	0.000000	13.762018	0.000000	14.130164	1409.721191	454.577332	0.204768	0.000000	-1.574996	0.000000	-8.855680	-0.000000
1.780000	17.424759	1462.171265	-463.709656	0.180357	0.000000	-0.792003	0.000000	13.379383	0.000000	14.372015	1411.332275	455.421021	0.205366	0.000000	-1.575896	0.000000	-8.432325	0.000000
1.781000	17.219734	1464.578369	-461.133698	0.180055	0.000000	-0.793462	0.000000	13.726948	0.000000	14.774961	1411.487793	455.060669	0.205041	0.000000	-1.575338	0.000000	-8.643382	-0.000000
1.782000	17.625225	1471.497437	-460.159668	0.179363	0.000000	-0.791824	0.000000	13.597127	0.000000	15.056294	1412.124023	456.265869	0.205455	0.000000	-1.575137	0.000000	-8.370035	-0.000000
1.783000	18.110065	1461.534546	-462.023437	0.179952	0.000000	-0.793032	0.000000	13.784302	0.000000	16.747871	1405.101074	454.418121	0.205431	0.000000	-1.575249	0.000000	-8.301347	-0.000000
